<svg xmlns="http://www.w3.org/2000/svg" xmlns:xlink="http://www.w3.org/1999/xlink" version="1.1" x="0px" y="0px" viewBox="0 0 128 160" style="enable-background:new 0 0 128 128;" xml:space="preserve"><g><polygon points="43.3,27.2 40.5,24.4 37.7,27.2 37.7,15.7 33.7,15.7 33.7,27.2 30.9,24.4 28.1,27.2 35.7,34.8  "/><polygon points="58.8,19.5 56,16.6 53.2,19.4 53.2,8 49.2,8 49.2,19.4 46.4,16.6 43.6,19.5 51.2,27.1  "/><polygon points="74.3,27.2 71.4,24.4 68.7,27.2 68.7,15.7 64.7,15.7 64.7,27.2 61.9,24.4 59,27.2 66.7,34.8  "/><polygon points="89.7,19.5 86.9,16.6 84.1,19.4 84.1,8 80.1,8 80.1,19.4 77.4,16.6 74.5,19.5 82.1,27.1  "/><polygon points="60.9,115.2 60.9,103.7 56.9,103.7 56.9,115.2 54.1,112.4 51.3,115.2 58.9,122.8 66.5,115.2 63.7,112.4  "/><path d="M100.5,75.9V65.1h-4.3c-0.3-1-0.7-2-1.2-2.9l3-3l-7.6-7.6l-2.1,2.1L90.7,39H27.1l10.2,62.4h43l2.3-9.5h1.8v-4.3   c1-0.3,2-0.7,2.9-1.2l3,3l7.7-7.7l-3-3c0.5-0.9,0.9-1.9,1.2-2.9H100.5z M31.9,43H86l-1.5,9v-3H73.7v4.3c-1,0.3-2,0.7-2.9,1.2l-3-3   l-7.6,7.6H34.5L31.9,43z M35.7,63.1h27c-0.3,0.6-0.5,1.3-0.8,1.9h-4.3v10.8l4.3,0c0.3,1,0.7,2,1.2,2.9L62.9,79H38L35.7,63.1z    M77.2,97.4H40.8L38.4,83h22.9l6.5,6.5l3-3c0.9,0.5,1.9,0.9,2.9,1.2v4.3h4.9L77.2,97.4z M93.1,71.9l-0.3,1.6   c-0.4,1.6-1,3.2-1.9,4.6L90,79.4l2.4,2.4l-2,2L88,81.4l-1.4,0.9c-1.4,0.9-2.9,1.5-4.6,1.9l-1.6,0.3v3.4h-2.8v-3.4l-1.6-0.3   c-1.6-0.4-3.2-1-4.6-1.9l-1.4-0.9l-2.4,2.4L66.9,83h0.4v-2.7l0.9-0.9L67.3,78c-0.9-1.4-1.5-2.9-1.9-4.6L65,71.9l-3.4,0v-2.8h3.4   l0.3-1.6c0.4-1.6,1-3.2,1.9-4.6l0.9-1.4l-2.4-2.4l2-2l2.4,2.4l1.4-0.9c1.4-0.9,2.9-1.5,4.6-1.9l1.6-0.3v-3.4h2.8v3.4l1.6,0.3   c1.6,0.4,3.2,1,4.6,1.9l1.4,0.9l2.4-2.4l2,2L90,61.6l0.9,1.4c0.9,1.4,1.5,2.9,1.9,4.6l0.3,1.6h3.4v2.8H93.1z"/><path d="M79.1,59.2c-6.2,0-11.2,5-11.2,11.2s5,11.2,11.2,11.2c6.2,0,11.2-5,11.2-11.2S85.3,59.2,79.1,59.2z M79.1,77.7   c-4,0-7.2-3.2-7.2-7.2s3.2-7.2,7.2-7.2c4,0,7.2,3.2,7.2,7.2S83.1,77.7,79.1,77.7z"/></g></svg>