<svg xmlns="http://www.w3.org/2000/svg" xmlns:xlink="http://www.w3.org/1999/xlink" version="1.1" x="0px" y="0px" viewBox="0 0 64 80" style="enable-background:new 0 0 64 64;" xml:space="preserve"><g><g><path d="M18.1,34.8c6.2,0,11.2-5,11.2-11.2s-5-11.2-11.2-11.2s-11.2,5-11.2,11.2S11.9,34.8,18.1,34.8z M18.1,14.5    c5.1,0,9.2,4.1,9.2,9.2s-4.1,9.2-9.2,9.2s-9.2-4.1-9.2-9.2S13,14.5,18.1,14.5z"/><circle cx="14.5" cy="20.9" r="1.5"/><circle cx="21.6" cy="20.9" r="1.5"/><path d="M18.1,29.5c2.3,0,4.3-1.3,5.4-3.3c0.3-0.5,0.1-1.1-0.4-1.3c-0.5-0.3-1.1-0.1-1.3,0.4c-0.7,1.4-2.1,2.2-3.6,2.2    c-1.5,0-2.9-0.8-3.6-2.2c-0.3-0.5-0.9-0.7-1.3-0.4s-0.7,0.9-0.4,1.3C13.7,28.2,15.8,29.5,18.1,29.5z"/><path d="M40.8,29.4c0.1,0.1,0.3,0.1,0.5,0.1c0.4,0,0.7-0.2,0.9-0.5c0.7-1.4,2.1-2.2,3.6-2.2s2.9,0.8,3.6,2.2    c0.3,0.5,0.9,0.7,1.3,0.4c0.5-0.3,0.7-0.9,0.4-1.3c-1.1-2-3.1-3.3-5.4-3.3S41.4,26,40.4,28C40.1,28.5,40.3,29.1,40.8,29.4z"/><path d="M45.8,34.8c6.2,0,11.2-5,11.2-11.2s-5-11.2-11.2-11.2s-11.2,5-11.2,11.2S39.6,34.8,45.8,34.8z M45.8,14.5    c5.1,0,9.2,4.1,9.2,9.2s-4.1,9.2-9.2,9.2s-9.2-4.1-9.2-9.2S40.7,14.5,45.8,14.5z"/><circle cx="42.2" cy="20.9" r="1.5"/><circle cx="49.3" cy="20.9" r="1.5"/><path d="M56,40.4C56,40.4,56,40.4,56,40.4l-18.9,0.1c-0.4,0-0.8,0.3-0.9,0.7l-2.4,7.5l-2.4-16.1c-0.1-0.4-0.4-0.8-0.9-0.8    c-0.4-0.1-0.9,0.2-1,0.6l-3.3,8.1H8c-0.6,0-1,0.4-1,1s0.4,1,1,1h18.8c0.4,0,0.8-0.2,0.9-0.6l2.1-5.3l2.5,16.7    c0.1,0.5,0.4,0.8,0.9,0.8c0,0,0.1,0,0.1,0c0.4,0,0.8-0.3,1-0.7l3.5-10.9L56,42.4c0.6,0,1-0.5,1-1C57,40.9,56.5,40.4,56,40.4z"/></g></g><text x="0" y="79" fill="#000000" font-size="5px" font-weight="bold" font-family="'Helvetica Neue', Helvetica, Arial-Unicode, Arial, Sans-serif">Created by Guilherme Simoes</text><text x="0" y="84" fill="#000000" font-size="5px" font-weight="bold" font-family="'Helvetica Neue', Helvetica, Arial-Unicode, Arial, Sans-serif">from the Noun Project</text></svg>