<svg xmlns="http://www.w3.org/2000/svg" xmlns:xlink="http://www.w3.org/1999/xlink" version="1.0" x="0px" y="0px" viewBox="0 0 100 125" enable-background="new 0 0 100 100" xml:space="preserve"><path fill="none" stroke="#000000" stroke-width="0.75" stroke-linecap="round" stroke-linejoin="round" stroke-miterlimit="10" d="  M59.998,31.25c4.911,0,9.341-2.043,12.505-5.313C69.339,29.207,64.909,31.25,59.998,31.25z"/><path fill="none" stroke="#000000" stroke-width="0.75" stroke-linecap="round" stroke-linejoin="round" stroke-miterlimit="10" d="  M59.998,48.75c9.431-0.002,17.071,7.641,17.075,17.07c0,4.814-2.008,9.16-5.215,12.264c3.207-3.104,5.215-7.449,5.215-12.264  C77.069,56.391,69.429,48.748,59.998,48.75z"/><rect x="10" y="27.498" fill="none" stroke="#000000" stroke-width="1.25" stroke-linecap="round" stroke-linejoin="round" stroke-miterlimit="10" width="50.002" height="15.001"/><rect x="13.75" y="31.25" fill="none" stroke="#000000" stroke-width="0.75" stroke-linecap="round" stroke-linejoin="round" stroke-miterlimit="10" width="12.5" height="2.999"/><rect x="13.75" y="36.75" fill="none" stroke="#000000" stroke-width="0.75" stroke-linecap="round" stroke-linejoin="round" stroke-miterlimit="10" width="3.749" height="1.999"/><circle fill="none" stroke="#000000" stroke-width="0.75" stroke-linecap="round" stroke-linejoin="round" stroke-miterlimit="10" cx="55.25" cy="37.75" r="1"/><circle fill="none" stroke="#000000" stroke-width="0.75" stroke-linecap="round" stroke-linejoin="round" stroke-miterlimit="10" cx="51.251" cy="37.75" r="1.001"/><circle fill="none" stroke="#000000" stroke-width="0.75" stroke-linecap="round" stroke-linejoin="round" stroke-miterlimit="10" cx="47.25" cy="37.75" r="1.001"/><rect x="28.751" y="31.25" fill="none" stroke="#000000" stroke-width="0.75" stroke-linecap="round" stroke-linejoin="round" stroke-miterlimit="10" width="3.001" height="2.999"/><rect x="31.752" y="31.25" fill="none" stroke="#000000" stroke-width="0.75" stroke-linecap="round" stroke-linejoin="round" stroke-miterlimit="10" width="12.002" height="2.999"/><rect x="53.25" y="31.25" fill="none" stroke="#000000" stroke-width="0.75" stroke-linecap="round" stroke-linejoin="round" stroke-miterlimit="10" width="3" height="2.999"/><rect x="28.751" y="36.75" fill="none" stroke="#000000" stroke-width="0.75" stroke-linecap="round" stroke-linejoin="round" stroke-miterlimit="10" width="15" height="1.999"/><rect x="13.75" y="49.998" fill="none" stroke="#000000" stroke-width="0.75" stroke-linecap="round" stroke-linejoin="round" stroke-miterlimit="10" width="12.5" height="3"/><rect x="13.75" y="55.5" fill="none" stroke="#000000" stroke-width="0.75" stroke-linecap="round" stroke-linejoin="round" stroke-miterlimit="10" width="3.749" height="2"/><rect x="28.751" y="49.998" fill="none" stroke="#000000" stroke-width="0.75" stroke-linecap="round" stroke-linejoin="round" stroke-miterlimit="10" width="3.001" height="3"/><rect x="31.752" y="49.998" fill="none" stroke="#000000" stroke-width="0.75" stroke-linecap="round" stroke-linejoin="round" stroke-miterlimit="10" width="12.002" height="3"/><rect x="53.25" y="49.998" fill="none" stroke="#000000" stroke-width="0.75" stroke-linecap="round" stroke-linejoin="round" stroke-miterlimit="10" width="3" height="3"/><rect x="28.751" y="55.5" fill="none" stroke="#000000" stroke-width="0.75" stroke-linecap="round" stroke-linejoin="round" stroke-miterlimit="10" width="15" height="2"/><rect x="12.501" y="42.501" fill="none" stroke="#000000" stroke-width="1.25" stroke-linecap="round" stroke-linejoin="round" stroke-miterlimit="10" width="45.001" height="3.749"/><rect x="13.75" y="68.749" fill="none" stroke="#000000" stroke-width="0.75" stroke-linecap="round" stroke-linejoin="round" stroke-miterlimit="10" width="12.5" height="2.998"/><rect x="13.75" y="74.249" fill="none" stroke="#000000" stroke-width="0.75" stroke-linecap="round" stroke-linejoin="round" stroke-miterlimit="10" width="3.749" height="2.002"/><rect x="28.751" y="68.749" fill="none" stroke="#000000" stroke-width="0.75" stroke-linecap="round" stroke-linejoin="round" stroke-miterlimit="10" width="3.001" height="2.998"/><path fill="none" stroke="#000000" stroke-width="1.25" stroke-linecap="round" stroke-linejoin="round" stroke-miterlimit="10" d="  M64.999,19.999c0-1.662,0.412-3.229,1.129-4.608C65.411,16.771,64.999,18.337,64.999,19.999z"/><path fill="none" stroke="#000000" stroke-width="1.25" stroke-linecap="round" stroke-linejoin="round" stroke-miterlimit="10" d="  M84.65,22.571c-0.135,0.5-0.297,0.989-0.5,1.457c-0.528,1.192-1.278,2.262-2.206,3.156c0.928-0.895,1.678-1.964,2.206-3.156  C84.354,23.56,84.516,23.071,84.65,22.571z"/><path fill="none" stroke="#000000" stroke-width="1.25" stroke-linecap="round" stroke-linejoin="round" stroke-miterlimit="10" d="  M42.749,90c-4.833,0-8.75-3.918-8.75-8.751c0-4.404,3.255-8.037,7.492-8.65c-0.31-1.15-0.492-2.35-0.492-3.598  C40.999,61.268,47.269,55,55,55c5.402,0,10.085,3.066,12.417,7.55c1.051-0.352,2.168-0.551,3.334-0.551  c5.799,0,10.502,4.701,10.498,10.5c4.835,0,8.751,3.918,8.751,8.75C90,86.084,86.084,90,81.249,90H42.749z"/><path fill="none" stroke="#000000" stroke-width="1.25" stroke-linecap="round" stroke-linejoin="round" stroke-miterlimit="10" d="  M69.001,69.001c0-2.33-0.578-4.52-1.584-6.451C68.423,64.481,69.001,66.671,69.001,69.001z"/><path fill="none" stroke="#000000" stroke-width="1.25" stroke-linecap="round" stroke-linejoin="round" stroke-miterlimit="10" d="  M41.491,72.599c0.187,0.701,0.41,1.389,0.7,2.039c0.737,1.672,1.788,3.17,3.083,4.42c-1.295-1.25-2.346-2.748-3.083-4.42  C41.901,73.987,41.678,73.3,41.491,72.599z"/><path fill="none" stroke="#000000" stroke-width="1.25" stroke-linecap="round" stroke-linejoin="round" stroke-miterlimit="10" d="  M84.65,22.571c0.221-0.823,0.352-1.681,0.352-2.572c0-5.524-4.479-9.999-10.003-9.999c-3.857,0-7.203,2.188-8.871,5.391  c-0.746-0.251-1.547-0.393-2.379-0.393c-4.144,0-7.501,3.357-7.499,7.5c-3.023,0-5.545,2.148-6.125,4.999h9.876V35l23.749-0.002  c3.452,0,6.249-2.798,6.249-6.25C90,25.603,87.676,23.007,84.65,22.571z"/><path fill="none" stroke="#000000" stroke-width="1.25" stroke-linecap="round" stroke-linejoin="round" stroke-miterlimit="10" d="  M42.749,90c-4.833,0-8.75-3.918-8.75-8.751c0-4.404,3.255-8.037,7.492-8.65c-0.31-1.15-0.492-2.35-0.492-3.598  C40.999,61.268,47.269,55,55,55c5.402,0,10.085,3.066,12.417,7.55c1.051-0.352,2.168-0.551,3.334-0.551  c5.799,0,10.502,4.701,10.498,10.5c4.835,0,8.751,3.918,8.751,8.75C90,86.084,86.084,90,81.249,90H42.749z"/><path fill="none" stroke="#000000" stroke-width="0.75" stroke-linecap="round" stroke-linejoin="round" stroke-miterlimit="10" d="  M37.549,74.249h-8.797v2.002h6.858C36.148,75.483,36.796,74.808,37.549,74.249z"/><path fill="none" stroke="#000000" stroke-width="0.75" stroke-linecap="round" stroke-linejoin="round" stroke-miterlimit="10" d="  M40.999,69.001c0-0.086,0.011-0.168,0.014-0.252h-9.26v2.998h9.564C41.13,70.856,40.999,69.946,40.999,69.001z"/><path fill="none" stroke="#000000" stroke-width="1.25" stroke-linecap="round" stroke-linejoin="round" stroke-miterlimit="10" d="  M33.999,81.249c0-0.428,0.055-0.84,0.113-1.248H12.501V90h2.497l2.501-4.998h17.375C34.329,83.858,33.999,82.597,33.999,81.249z"/><path fill="none" stroke="#000000" stroke-width="1.25" stroke-linecap="round" stroke-linejoin="round" stroke-miterlimit="10" d="  M41.491,72.599c-0.31-1.15-0.492-2.35-0.492-3.598c0-1.393,0.21-2.734,0.589-4.002H10v15h24.112  C34.664,76.177,37.666,73.151,41.491,72.599z"/><path fill="none" stroke="#000000" stroke-width="1.25" stroke-linecap="round" stroke-linejoin="round" stroke-miterlimit="10" d="  M43.342,61.25H12.501v3.751h29.086C41.987,63.655,42.582,62.394,43.342,61.25z"/><path fill="none" stroke="#000000" stroke-width="1.25" stroke-linecap="round" stroke-linejoin="round" stroke-miterlimit="10" d="  M55,55c1.768,0,3.445,0.355,5.002,0.955V46.25H10v15h33.342C45.854,57.484,50.136,55,55,55z"/><polygon fill="none" stroke="#000000" stroke-width="0.75" stroke-linecap="round" stroke-linejoin="round" stroke-miterlimit="10" points="  73.839,27.268 76.044,22.406 71.187,24.616 "/><polygon fill="none" stroke="#000000" stroke-width="0.75" stroke-linecap="round" stroke-linejoin="round" stroke-miterlimit="10" points="  70.534,76.757 68.327,81.62 73.185,79.409 "/></svg>