<svg xmlns="http://www.w3.org/2000/svg" xmlns:xlink="http://www.w3.org/1999/xlink" version="1.1" x="0px" y="0px" viewBox="0 0 65 81.25" enable-background="new 0 0 65 65" xml:space="preserve"><g><g><path d="M62.856,7.461c0.905,0,1.644-0.739,1.644-1.644V2.518c0-0.905-0.739-1.644-1.644-1.644H2.144    C1.239,0.873,0.5,1.612,0.5,2.518v3.299c0,0.906,0.739,1.644,1.644,1.644h1.738v33.478H2.144c-0.905,0-1.644,0.739-1.644,1.644    v3.299c0,0.905,0.739,1.644,1.644,1.644h28.545v5.834c-2.167,0.755-3.737,2.797-3.737,5.219c0,3.059,2.489,5.549,5.548,5.549    c3.059,0,5.548-2.489,5.548-5.549c0-2.422-1.569-4.464-3.737-5.219v-5.833h28.545c0.905,0,1.644-0.739,1.644-1.644v-3.299    c0-0.905-0.739-1.644-1.644-1.644h-1.738V7.461H62.856z M35.243,58.578c0,1.514-1.231,2.744-2.743,2.744    c-1.513,0-2.744-1.231-2.744-2.744c0-1.513,1.231-2.743,2.744-2.743C34.013,55.835,35.243,57.065,35.243,58.578z M58.088,40.938    H6.912V7.461h51.176V40.938z"/></g><g><path d="M21.086,31.003c0.012-0.004,0.022-0.011,0.034-0.015c0.213,0.38,0.649,0.583,1.081,0.445l0.533-0.171l1.879,6.318    c0.333,1.118,1.818,1.342,2.466,0.372l0.237-0.314c0.751-0.993,0.856-2.333,0.268-3.431l-0.396-0.739    c0.491-0.332,0.731-0.956,0.541-1.549c-0.231-0.721-1.003-1.118-1.724-0.886c-0.034,0.011-0.064,0.029-0.097,0.042l-0.38-0.71    l0.795-0.255c0.486-0.156,0.757-0.684,0.598-1.179l0.035,0.109l14.109,1.159l-5.48-17.072L24.787,22.28l0.035,0.109    c-0.159-0.495-0.687-0.767-1.173-0.611l-4.123,1.323c-0.495,0.159-0.757,0.684-0.598,1.179l0.104,0.325    c-1.767,0.567-2.739,2.459-2.172,4.225C17.428,30.597,19.319,31.57,21.086,31.003z"/></g><g><path d="M43.045,29.818c0.316,0.986,1.372,1.529,2.358,1.212c0.986-0.317,1.529-1.372,1.212-2.358l-5.628-17.535    c-0.317-0.986-1.372-1.529-2.358-1.212c-0.986,0.316-1.529,1.372-1.212,2.358L43.045,29.818z"/></g><g><path d="M48.084,18.524c-0.538-1.676-1.977-2.821-3.609-3.064l2.46,7.665C48.121,21.978,48.625,20.21,48.084,18.524z"/></g></g></svg>