<svg xmlns="http://www.w3.org/2000/svg" xmlns:xlink="http://www.w3.org/1999/xlink" version="1.1" x="0px" y="0px" viewBox="0 0 100 125" style="enable-background:new 0 0 100 100;" xml:space="preserve"><path d="M63,81v1c0,0.552-0.448,1-1,1H38c-0.552,0-1-0.448-1-1v-1c0-0.552,0.448-1,1-1h24C62.552,80,63,80.448,63,81z M45,72v3l-4,4  h18l-4-4v-3c0-0.552-0.448-1-1-1h-2V26.651C51.374,26.873,50.702,27,50,27s-1.374-0.127-2-0.349V71h-2C45.448,71,45,71.448,45,72z   M50,25c2.209,0,4-1.791,4-4c0-2.209-1.791-4-4-4s-4,1.791-4,4C46,23.209,47.791,25,50,25z M15.414,59.414  C15.789,59.789,16.298,60,16.828,60h12.343c0.53,0,1.039-0.211,1.414-0.586L34,56H12L15.414,59.414z M34.927,52.636  C34.971,52.749,35,52.871,35,53v1c0,0.552-0.448,1-1,1H12c-0.552,0-1-0.448-1-1v-1c0-0.129,0.029-0.251,0.073-0.364l-0.004-0.002  l0.009-0.023c0,0,0,0,0,0L21.926,25H18c-0.552,0-1-0.448-1-1v-1.095c0-0.514,0.389-0.944,0.901-0.995l26.354-2.635  C44.091,19.821,44,20.4,44,21c0,1.539,0.584,2.938,1.537,4H24.074l10.847,27.611c0,0,0,0,0,0l0.009,0.023L34.927,52.636z M23,27.735  L13.467,52h19.066L23,27.735z M69.414,59.414C69.789,59.789,70.298,60,70.828,60h12.343c0.53,0,1.039-0.211,1.414-0.586L88,56H66  L69.414,59.414z M89,53v1c0,0.552-0.448,1-1,1H66c-0.552,0-1-0.448-1-1v-1c0-0.129,0.029-0.251,0.073-0.364l-0.004-0.002  l0.009-0.023c0,0,0,0,0,0L75.926,25H54.463C55.416,23.938,56,22.539,56,21c0-0.6-0.091-1.179-0.255-1.725l26.354,2.635  C82.611,21.961,83,22.391,83,22.905V24c0,0.552-0.448,1-1,1h-3.926l10.847,27.611c0,0,0,0,0,0l0.009,0.023l-0.004,0.002  C88.971,52.749,89,52.871,89,53z M77,27.735L67.467,52h19.066L77,27.735z"/><text x="0" y="115" fill="#000000" font-size="5px" font-weight="bold" font-family="'Helvetica Neue', Helvetica, Arial-Unicode, Arial, Sans-serif">Created by Setyo Ari Wibowo</text><text x="0" y="120" fill="#000000" font-size="5px" font-weight="bold" font-family="'Helvetica Neue', Helvetica, Arial-Unicode, Arial, Sans-serif">from the Noun Project</text></svg>