<svg xmlns="http://www.w3.org/2000/svg" xmlns:xlink="http://www.w3.org/1999/xlink" version="1.1" x="0px" y="0px" viewBox="0 0 128 160" style="enable-background:new 0 0 128 128;" xml:space="preserve"><path d="M20.529541,103.4766846c1.5831909,0,3.1898193-0.3564453,4.7007446-1.1083984l2.1035767-1.0478516  c0.9885864-0.4921875,1.3908691-1.6923828,0.8987427-2.6816406L10.651062,63.3165283  c-0.4920654-0.9882813-1.6925049-1.3876953-2.6810913-0.8994141l-2.104126,1.0478516  c-5.2240601,2.6025391-7.3583374,8.9697266-4.7578735,14.1953125l9.9297485,19.9501953  C12.8864746,101.3243408,16.6376953,103.4766846,20.529541,103.4766846z M7.6482544,67.0460205l0.3134155-0.15625  L23.7613525,98.631958l-0.3134155,0.15625c-3.2523193,1.6171875-7.2120361,0.2910156-8.829834-2.9609375L4.6883545,75.8770752  C3.0700073,72.6260986,4.3983765,68.6641846,7.6482544,67.0460205z"/><path d="M84.3433228,7.0343018c-0.6838989-0.0664063-1.3532104,0.2167969-1.7764893,0.7568359  c-0.1967163,0.2509766-19.7520142,25.1806641-27.8978882,31.4101563  c-8.876709,6.7890625-39.6813354,19.2529297-39.991333,19.3779297c-0.5169678,0.2080078-0.923645,0.6230469-1.1213379,1.1445313  c-0.1981812,0.5214844-0.1693726,1.1015625,0.0791016,1.6015625l17.581543,35.3232422  c0.2445679,0.4902344,0.6795654,0.859375,1.2038574,1.0205078c0.1918945,0.0585938,0.3895874,0.0878906,0.5863037,0.0878906  c0.3412476,0,0.6800537-0.0869141,0.9827271-0.2587891c0.2909546-0.1640625,29.2175293-16.4589844,40.0103149-19.4580078  c9.8789673-2.7441406,41.5588379-3.3183594,41.8776245-3.3232422c0.6864014-0.0117188,1.3186035-0.375,1.6749878-0.9619141  s0.3866577-1.3144531,0.0810547-1.9296875L85.9313965,8.1329346C85.6253052,7.5186768,85.0258179,7.1036377,84.3433228,7.0343018z   M33.8619385,92.9874268L18.1754761,61.4708252c6.6147461-2.7249146,27.5481567-11.5392456,36.9525146-17.7103882  l15.5078735,31.1570435C60.001709,78.6338501,40.0499268,89.5472412,33.8619385,92.9874268z M74.5441895,73.7931519  L58.3853149,41.328186c5.6237183-4.8261108,14.5130005-15.2702637,20.624939-22.7261353l26.0993042,52.4349365  C95.4766235,71.4188232,81.7851563,72.2150269,74.5441895,73.7931519z M109.4993896,70.8800659L81.7819214,15.1940308  c0.7456055-0.9241333,1.413208-1.757019,1.9726563-2.4585571l28.8953247,58.0527344  C111.7529907,70.8117065,110.6860962,70.8422241,109.4993896,70.8800659z"/><path d="M49.711853,121.3380127c0.9407349,0,1.8961182-0.2119141,2.7938843-0.6591797l2.1031494-1.0478516  c1.5045776-0.7490234,2.6273804-2.0390625,3.1619873-3.6328125c0.5340576-1.59375,0.4158936-3.2998047-0.3109741-4.7587891  l-7.65625-16.4169922c-0.2279663-0.4882813-0.6434326-0.8642578-1.1525879-1.0419922  c-0.5077515-0.1787109-1.067688-0.1435547-1.5504761,0.0976563l-9.7886353,4.8740234  c-0.9710083,0.4833984-1.3796387,1.6523438-0.9212036,2.6357422l7.6781616,16.4628906  C45.168335,120.0587158,47.3983765,121.3380127,49.711853,121.3380127z M47.0463867,98.3731689l6.8111572,14.6035156  c0.2728882,0.5478516,0.3158569,1.1689453,0.121582,1.75c-0.1948242,0.5810547-0.6038818,1.0507813-1.1521606,1.3242188  c-0.0004883,0-0.0004883,0-0.0004883,0l-2.1030884,1.0478516c-1.1340332,0.5615234-2.5112305,0.1005859-3.052124-0.9853516  l-6.8322144-14.6494141L47.0463867,98.3731689z"/><path d="M112.2788696,0.1036377c-1.0452271-0.3496094-2.1807251,0.2128906-2.5317383,1.2607422l-6.9488525,20.7197266  c-0.3515015,1.046875,0.2128296,2.1806641,1.2595215,2.5322266c0.2108765,0.0703125,0.4257202,0.1044922,0.6365967,0.1044922  c0.8352661,0,1.6149292-0.5283203,1.8951416-1.3652344l6.9488525-20.7197266  C113.8898926,1.5889893,113.3255615,0.4552002,112.2788696,0.1036377z"/><path d="M126.0003052,52.9815674c0.8353271,0,1.6144409-0.5283203,1.8951416-1.3642578  c0.3515015-1.046875-0.2123413-2.1816406-1.2590332-2.5332031l-8.6984863-2.9208984  c-1.0471802-0.3486328-2.1807251,0.2119141-2.5322266,1.2597656c-0.3515015,1.046875,0.2123413,2.1816406,1.2590332,2.5332031  l8.6984863,2.9208984C125.574646,52.9473877,125.7889404,52.9815674,126.0003052,52.9815674z"/><path d="M127.7895508,27.0186768c-0.4921265-0.9892578-1.6930542-1.390625-2.6811523-0.8984375l-13.2874756,6.6201172  c-0.9885864,0.4921875-1.3908081,1.6933594-0.8982544,2.6816406c0.3495483,0.7021484,1.0564575,1.1083984,1.7911987,1.1083984  c0.2997437,0,0.6038818-0.0673828,0.8899536-0.2099609l13.2874756-6.6201172  C127.8798218,29.2081299,128.2821045,28.006958,127.7895508,27.0186768z"/><path d="M102.487793,99.8331299c0.5228271,0,1.0535278-0.0537109,1.585144-0.1660156  c3.1951904-0.6745605,5.4978638-3.2633667,5.980957-6.3128052l8.2785034-0.3727417  c1.1032715-0.0498047,1.9575806-0.984375,1.9078369-2.0878906c-0.050293-1.1044922-0.9998169-1.9570313-2.0875244-1.9082031  l-8.5339966,0.3844604c-1.3405151-3.4251099-4.9976196-5.4916382-8.7126465-4.7057495  c-4.1349487,0.8730469-6.7892456,4.9492188-5.9163208,9.0849609c0.3592529,1.701416,1.2644043,3.1470947,2.4884033,4.2047119  l-2.9787598,7.5482788c-0.8712769-0.1219482-1.7650146-0.1012573-2.651123,0.0858765  c-2.298584,0.4852295-4.1366577,1.961792-5.1687622,3.8863525l-5.1951294-1.5819092  c-0.0047607-0.4994507-0.057312-1.0054321-0.1643677-1.5124512c-0.8733521-4.1357422-4.9467773-6.7910156-9.0831909-5.9179688  c-4.135437,0.8730469-6.7897339,4.9492188-5.9168091,9.0859375c0.1851807,0.8772583,0.5166016,1.6862183,0.9598999,2.4105835  l-4.3757935,4.8452759c-0.7400513,0.8203125-0.6755981,2.0849609,0.1435547,2.8251953  c0.3827515,0.3457031,0.8621216,0.515625,1.3400879,0.515625c0.5457764,0,1.0895996-0.2226563,1.4845581-0.6591797  l4.3154907-4.7787476c1.0971069,0.5921631,2.3395996,0.9242554,3.6307373,0.9242554  c0.5228271,0,1.0535278-0.0537109,1.585144-0.1660156c2.2233276-0.4694214,4.0112915-1.8692017,5.0603638-3.7020874  l5.3154907,1.6186523c0.0164795,0.4277344,0.0606079,0.8588257,0.1518555,1.2914429  c0.7611084,3.6044922,3.9533691,6.0839844,7.4990845,6.0839844c0.5228271,0,1.0534668-0.0537109,1.585144-0.1660156  c4.1349487-0.875,6.7886963-4.9501953,5.9158325-9.0859375c-0.374939-1.7750854-1.343811-3.3243408-2.7520752-4.4320068  l2.9094238-7.37323C101.5458374,99.7854004,102.0131226,99.8331299,102.487793,99.8331299z M74.5776367,111.5509033  c-1.975647,0.4179688-3.9274292-0.8505859-4.3443604-2.8291016c-0.4178467-1.9785156,0.8519287-3.9277344,2.8295288-4.3457031  c0.2543335-0.0537109,0.5077515-0.0800781,0.7581787-0.0800781c1.6949463,0,3.2220459,1.1865234,3.5856934,2.9101563  C77.824585,109.1846924,76.5552979,111.1339111,74.5776367,111.5509033z M94.1890869,116.6768799  c-1.9766235,0.4179688-3.9274292-0.8515625-4.3443604-2.8300781c-0.4179077-1.9785156,0.8518677-3.9267578,2.8300171-4.3447266  c0.2548218-0.0537109,0.5111084-0.0810547,0.7655029-0.0810547c0.7019653,0,1.3898315,0.203125,1.9922485,0.5957031  c0.8201904,0.5341797,1.3835449,1.3564453,1.5856323,2.3144531  C97.4360352,114.3096924,96.1662598,116.2589111,94.1890869,116.6768799z M98.9030151,92.9229736  c-0.4178467-1.9785156,0.8514404-3.9277344,2.8290405-4.3447266c0.2543945-0.0537109,0.5082397-0.0800781,0.758667-0.0800781  c1.6954956,0,3.2220459,1.1855469,3.5857544,2.9091797c0.4178467,1.9785156-0.8519287,3.9277344-2.8295288,4.3457031  C101.2722168,96.1719971,99.3204346,94.9014893,98.9030151,92.9229736z"/><path d="M125.9998169,66.0001221c-1.104248,0-1.9995728,0.8955078-1.9995728,2v56H46.0153198  c-1.104248,0-1.9996338,0.8955078-1.9996338,2s0.8953857,2,1.9996338,2h79.9844971c1.1043091,0,1.9996338-0.8955078,1.9996338-2v-58  C127.9994507,66.8956299,127.104126,66.0001221,125.9998169,66.0001221z"/><text x="0" y="143" fill="#000000" font-size="5px" font-weight="bold" font-family="'Helvetica Neue', Helvetica, Arial-Unicode, Arial, Sans-serif">Created by priyanka</text><text x="0" y="148" fill="#000000" font-size="5px" font-weight="bold" font-family="'Helvetica Neue', Helvetica, Arial-Unicode, Arial, Sans-serif">from the Noun Project</text></svg>