<svg xmlns="http://www.w3.org/2000/svg" xmlns:xlink="http://www.w3.org/1999/xlink" version="1.1" x="0px" y="0px" viewBox="0 0 100 125" style="enable-background:new 0 0 100 100;" xml:space="preserve"><g><path d="M43.1,41.8h13.9c1.3,0,2.3-1,2.3-2.3V15.7c0-1.3-1-2.3-2.3-2.3H43.1c-1.3,0-2.3,1-2.3,2.3v23.8   C40.7,40.7,41.8,41.8,43.1,41.8z M43.3,15.9h13.4v23.3H43.3V15.9z"/><path d="M87.9,34.8H62.3v2.6h25.6c2.5,0,4.5,2,4.5,4.5v37.7c0,2.5-2,4.5-4.5,4.5H12.1c-2.5,0-4.5-2-4.5-4.5V41.9   c0-2.5,2-4.5,4.5-4.5h25.6v-2.6H12.1c-3.9,0-7.1,3.2-7.1,7.1v37.7c0,3.9,3.2,7.1,7.1,7.1h75.8c3.9,0,7.1-3.2,7.1-7.1V41.9   C95,37.9,91.8,34.8,87.9,34.8z"/><rect x="50.4" y="63.8" width="16.4" height="2.6"/><rect x="50.4" y="72.6" width="32.8" height="2.6"/><rect x="50.4" y="46.3" width="32.8" height="2.6"/><rect x="50.4" y="55" width="16.4" height="2.6"/><path d="M15.9,70.1c-0.6,1.7-0.5,3.3,0.2,4.3c0.5,0.7,1.2,1.1,2,1.1h16.2c0.8,0,1.5-0.4,2-1.1c0.7-1,0.8-2.7,0.2-4.3L33,60.5   l-2.4,0.9l3.5,9.7c0.4,1,0.3,1.7,0.2,1.9H18.2C18.1,72.7,18,72,18.3,71l3.5-9.7l-2.4-0.9L15.9,70.1z"/><path d="M32.5,52.2c0-3.5-2.8-6.3-6.3-6.3c-3.5,0-6.3,2.8-6.3,6.3s2.8,6.3,6.3,6.3C29.7,58.5,32.5,55.7,32.5,52.2z M22.5,52.2   c0-2.1,1.7-3.7,3.7-3.7s3.7,1.7,3.7,3.7c0,2.1-1.7,3.7-3.7,3.7S22.5,54.3,22.5,52.2z"/></g></svg>