<svg xmlns="http://www.w3.org/2000/svg" xmlns:xlink="http://www.w3.org/1999/xlink" version="1.1" x="0px" y="0px" viewBox="0 0 128 160" style="enable-background:new 0 0 128 128;" xml:space="preserve"><g><path d="M120.5,56.3c-3,0-5.6,1.9-6.7,4.6h-10.7c-0.4-6.8-2.6-13.1-6.1-18.5l8.2-8.2c0.9,0.4,1.9,0.6,2.9,0.6c1.8,0,3.6-0.7,5-2.1   c2.8-2.8,2.8-7.3,0-10.1v0c-2.8-2.8-7.3-2.8-10.1,0c-2.2,2.2-2.6,5.4-1.4,8l-7.7,7.7C86.8,30,76.3,24.7,64.5,24.7   c-12,0-22.8,5.5-29.9,14.2l-8.2-8.2c1.2-2.6,0.7-5.8-1.4-8c-2.8-2.8-7.3-2.8-10.1,0c-2.8,2.8-2.8,7.3,0,10.1c1.4,1.4,3.2,2.1,5,2.1   c1,0,2-0.2,2.9-0.6l8.8,8.8c-3.3,5.3-5.3,11.4-5.8,17.9H14.2c-1-2.7-3.6-4.6-6.7-4.6c-3.9,0-7.1,3.2-7.1,7.1s3.2,7.1,7.1,7.1   c3,0,5.6-1.9,6.7-4.6h11.7c0.4,6.7,2.6,12.9,5.9,18.2c-0.4,0.1-0.8,0.3-1.1,0.6l-9,9c-2.6-1.2-5.8-0.7-8,1.4   c-2.8,2.8-2.8,7.3,0,10.1c1.4,1.4,3.2,2.1,5,2.1s3.6-0.7,5-2.1c2.2-2.2,2.6-5.4,1.4-8l9-9c0.1-0.1,0.2-0.2,0.3-0.4   c7.1,8.7,17.9,14.2,29.9,14.2c11.8,0,22.3-5.3,29.4-13.6l8.8,8.8c-1.2,2.6-0.7,5.8,1.4,8c1.4,1.4,3.2,2.1,5,2.1s3.6-0.7,5-2.1v0   c2.8-2.8,2.8-7.3,0-10.1c-2.2-2.2-5.4-2.6-8-1.4l-9-9c-0.1-0.1-0.2-0.2-0.3-0.3c3.5-5.4,5.7-11.7,6.2-18.6h10.7   c1,2.7,3.6,4.6,6.7,4.6c3.9,0,7.1-3.2,7.1-7.1S124.4,56.3,120.5,56.3z M106.6,26.2c0.4-0.4,1-0.6,1.5-0.6s1.1,0.2,1.5,0.6   c0.8,0.8,0.8,2.2,0,3c-0.8,0.8-2.2,0.8-3,0C105.8,28.4,105.8,27,106.6,26.2z M18.4,29.2c-0.8-0.8-0.8-2.2,0-3   c0.4-0.4,1-0.6,1.5-0.6s1.1,0.2,1.5,0.6c0.8,0.8,0.8,2.2,0,3C20.5,30,19.2,30,18.4,29.2z M20.2,101.8c-0.8,0.8-2.2,0.8-3,0   c-0.8-0.8-0.8-2.2,0-3c0.4-0.4,1-0.6,1.5-0.6c0.5,0,1.1,0.2,1.5,0.6C21.1,99.6,21.1,101,20.2,101.8z M110.8,98.8   c0.8,0.8,0.8,2.2,0,3c-0.8,0.8-2.2,0.8-3,0c-0.8-0.8-0.8-2.2,0-3c0.4-0.4,1-0.6,1.5-0.6S110.3,98.4,110.8,98.8z M7.5,65.6   c-1.2,0-2.1-1-2.1-2.1s1-2.1,2.1-2.1s2.1,1,2.1,2.1S8.7,65.6,7.5,65.6z M64.5,97.1c-18.6,0-33.7-15.1-33.7-33.7   s15.1-33.7,33.7-33.7c18.6,0,33.7,15.1,33.7,33.7S83.1,97.1,64.5,97.1z M120.5,65.6c-1.2,0-2.1-1-2.1-2.1s1-2.1,2.1-2.1   s2.1,1,2.1,2.1S121.6,65.6,120.5,65.6z"/><path d="M84.7,54.5c2.5-2.5,2.5-6.5,0-9c-0.2-0.2-0.5-0.4-0.8-0.5l-15.8-7c-2.4-2-5.9-2-8.3,0l-15.8,7c-0.3,0.1-0.5,0.3-0.8,0.5   c-2.5,2.5-2.5,6.5,0,9c0.2,0.2,0.4,0.3,0.6,0.5l1.8,0.9l-2,1.3c-0.2,0.1-0.3,0.2-0.4,0.3c-2.5,2.5-2.5,6.5,0,9   c0.2,0.2,0.4,0.3,0.6,0.5l1.8,0.9l-2,1.3c-0.2,0.1-0.3,0.2-0.4,0.3c-2.5,2.5-2.5,6.5,0,9c0.2,0.2,0.4,0.3,0.6,0.5l15.8,8   c1.2,1,2.7,1.6,4.2,1.6c1.5,0,3-0.5,4.2-1.6L84,79c0.2-0.1,0.5-0.3,0.6-0.5c2.5-2.5,2.5-6.5,0-9c-0.1-0.1-0.3-0.2-0.4-0.3l-2-1.3   L84,67c0.2-0.1,0.5-0.3,0.6-0.5c2.5-2.5,2.5-6.5,0-9c-0.1-0.1-0.3-0.2-0.4-0.3l-2-1.3L84,55C84.3,54.9,84.5,54.7,84.7,54.5z    M46.6,49.3l15.6-6.9c0.3-0.1,0.5-0.3,0.8-0.5c0.5-0.5,1.4-0.5,2,0c0.2,0.2,0.5,0.4,0.8,0.5l15.6,6.9c0.1,0.2,0.2,0.4,0.2,0.7   c0,0.3-0.1,0.5-0.2,0.7l-15.7,7.9c-0.2,0.1-0.5,0.3-0.6,0.5c-0.5,0.5-1.4,0.5-2,0c-0.2-0.2-0.4-0.3-0.6-0.5l-15.7-7.9   C46.4,50.3,46.4,49.7,46.6,49.3z M77.7,70.9l3.6,2.3c0.2,0.2,0.3,0.5,0.3,0.8c0,0.3-0.1,0.5-0.2,0.7l-15.7,7.9   c-0.2,0.1-0.5,0.3-0.6,0.5c-0.5,0.5-1.4,0.5-2,0c-0.2-0.2-0.4-0.3-0.6-0.5l-15.7-7.9c-0.3-0.5-0.3-1.1,0.1-1.6l3.6-2.3   c0.2-0.1,0.4-0.3,0.5-0.5l9,4.5c1.2,1,2.7,1.6,4.2,1.6c1.5,0,3-0.5,4.2-1.6l9-4.5C77.3,70.6,77.5,70.8,77.7,70.9z M77.7,58.9   l3.6,2.3c0.2,0.2,0.3,0.5,0.3,0.8c0,0.3-0.1,0.5-0.2,0.7l-15.7,7.9c-0.2,0.1-0.5,0.3-0.6,0.5c-0.5,0.5-1.4,0.5-2,0   c-0.2-0.2-0.4-0.3-0.6-0.5l-15.7-7.9c-0.3-0.5-0.3-1.1,0.1-1.6l3.6-2.3c0.2-0.1,0.4-0.3,0.5-0.5l9,4.5c1.2,1,2.7,1.6,4.2,1.6   c1.5,0,3-0.5,4.2-1.6l9-4.5C77.3,58.6,77.5,58.8,77.7,58.9z"/></g><text x="0" y="143" fill="#000000" font-size="5px" font-weight="bold" font-family="'Helvetica Neue', Helvetica, Arial-Unicode, Arial, Sans-serif">Created by Shocho</text><text x="0" y="148" fill="#000000" font-size="5px" font-weight="bold" font-family="'Helvetica Neue', Helvetica, Arial-Unicode, Arial, Sans-serif">from the Noun Project</text></svg>