<svg xmlns="http://www.w3.org/2000/svg" xmlns:xlink="http://www.w3.org/1999/xlink" version="1.1" x="0px" y="0px" viewBox="0 0 100 125" enable-background="new 0 0 100 100" xml:space="preserve"><path d="M95.1,34L40.3,2.3c-0.8-0.4-2-0.4-2.7,0L5,21.3c-0.7,0.4-0.7,1.1,0,1.6l54.7,31.6c0.8,0.4,2,0.4,2.7,0l32.6-19  C95.8,35.1,95.8,34.4,95.1,34z M66.5,47.2c-0.3-0.3-0.7-0.6-1.1-0.8c-2.8-1.6-7.3-1.6-10.1,0c-0.2,0.1-0.4,0.3-0.6,0.4L17.9,25.5  c0.4-0.1,0.7-0.3,1-0.5c2.8-1.6,2.8-4.2,0-5.8c-0.3-0.2-0.6-0.3-1-0.5l15.2-8.8c0.2,0.2,0.5,0.4,0.8,0.6c2.8,1.6,7.3,1.6,10.1,0  c0.3-0.2,0.6-0.4,0.8-0.6l37,21.4c-0.5,0.2-1,0.4-1.4,0.6c-2.8,1.6-2.8,4.2,0,5.8c0.4,0.3,0.9,0.5,1.4,0.6L66.5,47.2z M71,39.1  l-2.4,1.4c-0.4,0.2-1,0.2-1.3,0L63,38.1c-0.4-0.2-0.4-0.6,0-0.8l2.4-1.4c0.4-0.2,1-0.2,1.3,0l4.2,2.4C71.4,38.6,71.4,38.9,71,39.1z   M37,19.5l-2.4,1.4c-0.4,0.2-1,0.2-1.3,0L29,18.5c-0.4-0.2-0.4-0.6,0-0.8l2.4-1.4c0.4-0.2,1-0.2,1.3,0l4.2,2.4  C37.4,19,37.4,19.3,37,19.5z M91.4,43.7l4.3,2.5L61.4,66l-1.1-0.6l-3.1-1.8L4.4,33l4.2-2.5l52.8,30.5L91.4,43.7z M57.2,74.2  L4.4,43.7l4.2-2.5l52.9,30.6l29.9-17.4l4.3,2.5L61.5,76.7l-1.1-0.6L57.2,74.2z M91.4,65l4.3,2.5L61.4,87.3l-1.1-0.6l-3.1-1.8  L4.4,54.3l4.2-2.5l52.8,30.5L91.4,65z M57.2,95.5L4.4,65l4.2-2.5l52.9,30.6l29.9-17.4l4.3,2.5L61.5,98l-1.1-0.6L57.2,95.5z   M60.9,22.1c-6-3.5-15.8-3.5-21.8,0c-6,3.5-5.9,9.1,0.1,12.6c6,3.5,15.8,3.5,21.8,0C66.9,31.2,66.9,25.6,60.9,22.1z M48.3,30.2  l-4.2,0l0-2.4l0-2.4l4.2,0l0,2.4l9.7,0l0,2.5L48.3,30.2z"/></svg>