<svg xmlns="http://www.w3.org/2000/svg" viewBox="0 0 64 80" x="0px" y="0px"><title>pie-charts-presentation-reports-meeting-sales</title><g><path d="M61,8a1,1,0,0,0,1-1V3a1,1,0,0,0-1-1H3A1,1,0,0,0,2,3V7A1,1,0,0,0,3,8H4V52H2v2H31v2.184a3,3,0,1,0,2,0V54H62V52H60V8ZM32,60a1,1,0,1,1,1-1A1,1,0,0,1,32,60ZM4,4H60V6H4ZM58,52H6V8H58Z"/><path d="M20.687,41.313a15.956,15.956,0,0,0,25.06-3.152l2.546,2.546,1.414-1.414-3-3a15.984,15.984,0,0,0-6.929-20.271L41.468,14H46V12H41a1,1,0,0,0-.768.36l-2.313,2.776a15.949,15.949,0,0,0-16.491,2.878l-.721-.721A1,1,0,0,0,20,17H17v2h2.586l.428.428a15.964,15.964,0,0,0,.673,21.885Zm24.482-6.558-1.462-1.462-1.414,1.414L44.285,36.7a13.927,13.927,0,0,1-1.7,2.468L33.414,30l9.168-9.167a14.008,14.008,0,0,1,2.587,13.922Zm-8.4-15.115,1.711-2.053a13.921,13.921,0,0,1,2.688,1.831L33,27.586V16.035a13.952,13.952,0,0,1,3.561.73L35.232,18.36ZM23.293,22.707l1.414-1.414-1.868-1.868A13.864,13.864,0,0,1,31,16.035V30a1,1,0,0,0,.066.34c.005.013,0,.027.01.04s.026.036.036.056a.967.967,0,0,0,.146.218c.014.016.02.038.035.053l9.874,9.875a13.992,13.992,0,0,1-19.739-19.74Z"/><rect x="48" y="12" width="7" height="2"/><rect x="48" y="16" width="5" height="2"/><rect x="9" y="17" width="6" height="2"/><rect x="9" y="21" width="6" height="2"/><rect x="48" y="43" width="7" height="2"/><rect x="48" y="47" width="7" height="2"/><rect x="9" y="43" width="7" height="2"/><rect x="9" y="47" width="5" height="2"/><rect x="9" y="39" width="7" height="2"/></g><text x="0" y="79" fill="#000000" font-size="5px" font-weight="bold" font-family="'Helvetica Neue', Helvetica, Arial-Unicode, Arial, Sans-serif">Created by monkik</text><text x="0" y="84" fill="#000000" font-size="5px" font-weight="bold" font-family="'Helvetica Neue', Helvetica, Arial-Unicode, Arial, Sans-serif">from the Noun Project</text></svg>