<svg xmlns="http://www.w3.org/2000/svg" data-name="Layer 1" viewBox="0 0 100 125" x="0px" y="0px"><title>03</title><path d="M45.7,86.1l3.14,2.21,1.16.82,1.16-.82L54.3,86.1C60.16,82,66.21,77.74,71,73.19c6.84-6.53,10-12.65,10-19.26V22.22L50,10.87,19,22.22V53.93c0,6.61,3.19,12.73,10,19.26C33.79,77.74,39.84,82,45.7,86.1ZM23,53.93V25l27-9.89L77,25V53.93c0,5.44-2.79,10.64-8.79,16.37C63.67,74.64,57.74,78.8,52,82.83l-2,1.41-2-1.41c-5.74-4-11.67-8.19-16.21-12.53C25.79,64.57,23,59.37,23,53.93Z"/><polygon points="67.02 38.06 64.22 35.2 44.77 54.17 36.14 44.1 33.1 46.7 44.51 60.01 67.02 38.06"/><text x="0" y="115" fill="#000000" font-size="5px" font-weight="bold" font-family="'Helvetica Neue', Helvetica, Arial-Unicode, Arial, Sans-serif">Created by krishna</text><text x="0" y="120" fill="#000000" font-size="5px" font-weight="bold" font-family="'Helvetica Neue', Helvetica, Arial-Unicode, Arial, Sans-serif">from the Noun Project</text></svg>