<svg xmlns:x="http://ns.adobe.com/Extensibility/1.0/" xmlns:i="http://ns.adobe.com/AdobeIllustrator/10.0/" xmlns:graph="http://ns.adobe.com/Graphs/1.0/" xmlns="http://www.w3.org/2000/svg" xmlns:xlink="http://www.w3.org/1999/xlink" version="1.1" x="0px" y="0px" viewBox="0 0 100 125" enable-background="new 0 0 100 100" xml:space="preserve"><metadata><sfw xmlns="http://ns.adobe.com/SaveForWeb/1.0/"><slices/><sliceSourceBounds width="1449.1" height="1429.6" y="-1445.1" x="0.4" bottomLeftOrigin="true"/></sfw></metadata><path d="M50,8.7c-19.1,0-33.5,6.6-33.5,15.4v51.7c0,8.8,14.4,15.4,33.5,15.4c19.1,0,33.5-6.6,33.5-15.4V24.1  C83.5,15.4,69.1,8.7,50,8.7z M78.5,58.6C78.5,63.5,66.3,69,50,69c-16.3,0-28.5-5.5-28.5-10.4v-8.9c5.8,4.3,16.2,7.1,28.5,7.1  c12.3,0,22.7-2.8,28.5-7.1V58.6z M78.5,41.4c0,4.9-12.2,10.4-28.5,10.4c-16.3,0-28.5-5.5-28.5-10.4v-8.9c5.8,4.3,16.2,7.1,28.5,7.1  c12.3,0,22.7-2.8,28.5-7.1V41.4z M50,13.7c16.3,0,28.5,5.5,28.5,10.4S66.3,34.5,50,34.5c-16.3,0-28.5-5.5-28.5-10.4  S33.7,13.7,50,13.7z M50,86.3c-16.3,0-28.5-5.5-28.5-10.4v-8.9C27.3,71.3,37.7,74,50,74c12.3,0,22.7-2.8,28.5-7.1v8.9  C78.5,80.8,66.3,86.3,50,86.3z"/><text x="0" y="115" fill="#000000" font-size="5px" font-weight="bold" font-family="'Helvetica Neue', Helvetica, Arial-Unicode, Arial, Sans-serif">Created by Gregor Cresnar</text><text x="0" y="120" fill="#000000" font-size="5px" font-weight="bold" font-family="'Helvetica Neue', Helvetica, Arial-Unicode, Arial, Sans-serif">from the Noun Project</text></svg>