<svg xmlns="http://www.w3.org/2000/svg" xmlns:xlink="http://www.w3.org/1999/xlink" version="1.1" x="0px" y="0px" viewBox="0 0 100 125" enable-background="new 0 0 100 100" xml:space="preserve"><g><path d="M82.151,52.217c2.966-2.476,4.893-6.526,4.893-11.095c0-7.527-5.239-13.646-11.682-13.646   c-4.087,0-7.693,2.469-9.785,6.195c-1.445-8.566-7.881-15.039-15.581-15.039S35.861,25.105,34.423,33.67   c-2.093-3.726-5.698-6.195-9.785-6.195c-6.451,0-11.689,6.119-11.689,13.646c0,4.569,1.927,8.618,4.893,11.095   C10.352,54.987,5,62.197,5,70.643c0,1.039,0.843,1.882,1.882,1.882h16.778c-0.587,2.228-0.903,4.561-0.903,6.962   c0,1.039,0.835,1.882,1.882,1.882h50.724c1.039,0,1.882-0.843,1.882-1.882c0-2.401-0.316-4.734-0.903-6.962h16.778   c1.039,0,1.882-0.843,1.882-1.882C95,62.197,89.641,54.987,82.151,52.217z M75.362,31.239c4.365,0,7.918,4.433,7.918,9.883   c0,5.45-3.553,9.883-7.918,9.883c-4.366,0-7.918-4.433-7.918-9.883C67.444,35.672,70.997,31.239,75.362,31.239z M68.573,52.217   c-2.055,0.745-3.974,1.852-5.69,3.267c-1.543-0.828-3.169-1.513-4.87-2.04c2.702-1.859,4.9-4.644,6.277-7.979   C65.073,48.212,66.593,50.568,68.573,52.217z M49.996,22.395c6.684,0,12.126,6.691,12.126,14.926   c0,8.227-5.442,14.918-12.126,14.918c-6.684,0-12.118-6.691-12.118-14.918C37.878,29.086,43.312,22.395,49.996,22.395z    M35.71,45.465c1.37,3.334,3.568,6.119,6.278,7.979c-1.701,0.519-3.327,1.204-4.87,2.04c-1.709-1.415-3.636-2.514-5.69-3.267   C33.407,50.568,34.92,48.212,35.71,45.465z M16.712,41.122c0-5.45,3.553-9.883,7.926-9.883c4.366,0,7.918,4.433,7.918,9.883   c0,5.45-3.553,9.883-7.918,9.883C20.265,51.005,16.712,46.571,16.712,41.122z M8.869,68.761   c0.933-7.873,7.647-13.993,15.769-13.993c3.289,0,6.451,1.001,9.1,2.868c-3.824,2.853-6.88,6.691-8.784,11.125H8.869z    M26.587,77.605c0.963-12.073,11.095-21.602,23.409-21.602c12.314,0,22.445,9.529,23.409,21.602H26.587z M75.046,68.761   c-1.912-4.433-4.96-8.272-8.784-11.125c2.65-1.867,5.811-2.868,9.1-2.868c8.114,0,14.828,6.119,15.761,13.993H75.046z"/></g></svg>