<svg xmlns="http://www.w3.org/2000/svg" xmlns:xlink="http://www.w3.org/1999/xlink" version="1.1" x="0px" y="0px" viewBox="0 0 100 125" style="enable-background:new 0 0 100 100;" xml:space="preserve"><path d="M80.7,77.3c-0.2-0.8-0.2-2.2-0.2-3.7c0-5,0.1-12.6-5.7-21.7c0,0,0,0,0,0l-3.5-5.5c-0.6-1-1.6-1.6-2.7-1.9  c-1.1-0.2-2.3,0-3.2,0.6c0,0,0,0-0.1,0c-0.6,0.4-1,0.9-1.3,1.4c-0.5-0.4-1.1-0.7-1.7-0.8c-1.1-0.3-2.3,0-3.3,0.6  c0,0-0.1,0.1-0.1,0.1c-0.7,0.5-1.3,1.2-1.6,2c-1.3-0.6-2.7-0.5-4,0.2c-0.1,0-0.1,0.1-0.2,0.1c-0.6,0.4-1,0.8-1.3,1.3l-5.7-8.9  c-0.7-1.1-1.7-1.8-3-2.1c-1.2-0.3-2.5-0.1-3.6,0.6c0,0,0,0,0,0c0,0,0,0-0.1,0c-1.1,0.7-1.8,1.7-2.1,3c-0.3,1.2-0.1,2.5,0.6,3.6  l9.5,14.9c-0.5,0.2-0.9,0.5-1.4,0.8c-0.2,0.1-0.4,0.3-0.7,0.5l0,0c-1.1,0.7-1.9,1.8-2.2,3.1s-0.1,2.6,0.7,3.8l3.3,5.2  c0.1,0.1,0.1,0.2,0.2,0.2c4,5.5,8.9,7,12.2,7.9c0.9,0.3,1.7,0.5,2.3,0.8c0.1,0,0.2,0.1,0.3,0.1c0,0,0,0,0,0c1.5,0.3,2,1.1,2.9,2.5  l0.3,0.5c0.2,0.4,0.7,0.6,1.1,0.6c0.2,0,0.5-0.1,0.7-0.2c0.6-0.4,0.8-1.2,0.4-1.8l-0.3-0.5c-0.9-1.5-1.9-3.1-4.5-3.7c0,0,0,0,0,0  c-0.7-0.3-1.5-0.5-2.5-0.8c-3.3-1-7.9-2.3-11.5-8l0,0l-2.8-4.3c-0.3-0.5-0.5-1.2-0.3-1.8c0.1-0.6,0.5-1.2,1.1-1.5c0,0,0,0,0,0  c0.3-0.2,0.5-0.3,0.7-0.5c0.4-0.3,1.1-0.7,1.3-0.8c0,0,0.1,0.1,0.2,0.3l3.9,6.1c0.2,0.4,0.7,0.6,1.1,0.6c0.2,0,0.5-0.1,0.7-0.2  c0.6-0.4,0.8-1.2,0.4-1.8l-3.9-6.1c0,0,0,0,0,0c0,0,0,0,0,0l-11-17.3c-0.3-0.5-0.4-1.1-0.3-1.6c0.1-0.6,0.5-1,0.9-1.4c0,0,0,0,0,0  c0,0,0,0,0.1,0c0.5-0.3,1.1-0.4,1.6-0.3c0.6,0.1,1,0.5,1.4,0.9l7.8,12.3l0,0l0,0l3.7,5.7c0.2,0.4,0.7,0.6,1.1,0.6  c0.2,0,0.5-0.1,0.7-0.2c0.6-0.4,0.8-1.2,0.4-1.8l-3.7-5.7c-0.5-0.8-0.3-2,0.6-2.5c0,0,0,0,0,0c0.9-0.5,2-0.3,2.5,0.6l3.7,5.7  c0.2,0.4,0.7,0.6,1.1,0.6c0.2,0,0.5-0.1,0.7-0.2c0.6-0.4,0.8-1.2,0.4-1.8l-3-4.8c0,0,0,0,0,0c-0.3-0.4-0.3-0.9-0.2-1.4  c0.1-0.5,0.4-0.9,0.8-1.1c0,0,0,0,0,0c0.4-0.3,0.9-0.4,1.4-0.2c0.5,0.1,0.9,0.4,1.1,0.8l1.2,1.9c0,0,0,0,0,0c0,0,0,0,0,0l2.4,3.8  c0.2,0.4,0.7,0.6,1.1,0.6c0.2,0,0.5-0.1,0.7-0.2c0.6-0.4,0.8-1.2,0.4-1.8l-2.4-3.8l0,0c-0.2-0.4-0.3-0.8-0.2-1.3  c0.1-0.4,0.4-0.8,0.7-1.1l0,0c0.4-0.2,0.8-0.3,1.3-0.2c0.4,0.1,0.8,0.4,1.1,0.7l3.5,5.5c5.4,8.5,5.3,15.6,5.3,20.3  c0,1.8,0,3.2,0.3,4.4c0.1,0.6,0.7,1,1.3,1c0.1,0,0.2,0,0.3,0C80.4,78.7,80.9,78,80.7,77.3z"/><path d="M27.5,23.8c-5.7,0-10.3,4.6-10.3,10.3s4.6,10.3,10.3,10.3s10.3-4.6,10.3-10.3S33.1,23.8,27.5,23.8z M26.1,37.8l-3.7-3.7  l1.5-1.5l2.2,2.2l4.7-4.7l1.5,1.5L26.1,37.8z"/><path d="M92.7,13.8H7.5c-3.2,0-5.9,2.6-5.9,5.9v53.6c0,3.2,2.6,5.9,5.9,5.9h35.9l-1.9-2.7h0.1l-2.5-3.8H13.2V20.6h77.7v52.1l-5.8,0  l1.7,6.5h5.9c3.2,0,5.9-2.6,5.9-5.9V19.7C98.6,16.4,96,13.8,92.7,13.8z M7.4,47.5c-1.2,0-2.2-1-2.2-2.2c0-1.2,1-2.2,2.2-2.2  s2.2,1,2.2,2.2C9.5,46.5,8.6,47.5,7.4,47.5z"/><text x="0" y="115" fill="#000000" font-size="5px" font-weight="bold" font-family="'Helvetica Neue', Helvetica, Arial-Unicode, Arial, Sans-serif">Created by Aneeque Ahmed</text><text x="0" y="120" fill="#000000" font-size="5px" font-weight="bold" font-family="'Helvetica Neue', Helvetica, Arial-Unicode, Arial, Sans-serif">from the Noun Project</text></svg>